<svg preserveAspectRatio="none" width="100%" height="100%" overflow="visible" style="display: block;" viewBox="0 0 54 15.5758" fill="none" xmlns="http://www.w3.org/2000/svg">
<g id="Group 1">
<path id="Vector" d="M15.4773 2.81328C15.6769 2.80649 15.887 2.83016 16.0887 2.83325C19.1143 2.86854 23.4282 3.69503 22.5348 7.75926C22.0341 10.037 19.1995 11.0036 17.3845 12.112C15.899 13.2549 15.8313 13.7076 15.8776 15.4996C15.142 15.5364 14.3757 15.4856 13.6149 15.5278C13.5781 14.1866 13.6056 12.7276 13.6059 11.3757L13.5981 3.02133C14.2899 2.88215 14.7914 2.86764 15.4773 2.81328ZM15.8201 10.9331C16.1114 10.7207 16.3736 10.5051 16.6737 10.3034C17.279 9.89648 17.9178 9.54264 18.5526 9.1833C19.2504 8.71095 20.1582 8.11257 20.2754 7.21771C20.6128 4.64153 17.4106 4.90902 15.831 4.8556C15.8755 5.22229 15.8581 5.69657 15.8575 6.07705L15.8584 7.93642L15.8587 9.77152C15.8585 10.0923 15.8752 10.6312 15.8201 10.9331Z" fill="var(--fill-0, #F27E29)"/>
<path id="Vector_2" d="M43.8367 3.1734C44.0862 3.21079 44.8674 3.1968 45.1482 3.1968L47.6686 3.19574L51.6314 3.1969C52.341 3.19684 53.3119 3.2214 54 3.16032C53.4244 5.83686 52.5903 7.36296 50.7516 9.40098C50.2336 9.97516 49.8283 10.5419 49.2441 11.1136C49.7475 11.9326 50.5533 12.5104 51.4444 12.8504C52.172 13.1537 52.6242 13.2402 53.3818 13.4218C53.4377 14.0588 53.4434 14.9402 53.3881 15.5735C52.3487 15.3773 51.8173 15.2839 50.8335 14.845C47.9944 13.5783 46.026 10.9319 44.9123 8.11176C44.6731 7.48839 44.4678 6.8525 44.2978 6.20685C44.188 5.79752 43.7052 3.47552 43.8367 3.1734ZM49.6157 7.58619C50.3158 6.79598 50.8641 6.08972 51.2517 5.09472L46.2868 5.08893C46.5543 6.43021 47.2041 8.09994 47.9884 9.22882C48.6295 8.66507 49.0651 8.26698 49.6157 7.58619Z" fill="var(--fill-0, #F27E29)"/>
<path id="Vector_3" d="M0.0271262 2.76897C0.369997 2.77546 0.959282 2.87988 1.29171 2.95801C4.3845 3.6846 6.02322 6.2485 7.34716 8.9127C7.57012 9.36101 7.78758 9.81199 7.99953 10.2656C8.06657 10.4117 8.19913 10.8647 8.33315 10.8954C8.37607 10.7818 8.36386 9.808 8.36878 9.59755C8.40688 7.97808 8.75534 6.47902 9.73581 5.15804C9.96702 4.84653 10.2405 4.54615 10.4985 4.25205C10.5788 7.95904 10.4647 11.7765 10.5189 15.5039C9.66693 15.5094 8.8149 15.5096 7.96289 15.5045C7.86953 15.3201 7.81247 15.1355 7.74639 14.9401C6.86092 12.3809 5.67213 9.63177 4.12883 7.38783C3.60419 6.62498 3.05207 6.08666 2.29021 5.56018C2.26096 6.45815 2.29503 7.56918 2.29533 8.48755L2.30272 15.5031C1.59581 15.544 0.828855 15.4845 0.0792974 15.5292C0.0323502 11.7478 0.141583 7.96117 0.0239323 4.18129C0.00985812 3.72891 -0.0236806 3.21565 0.0271262 2.76897Z" fill="var(--fill-0, #F27E29)"/>
<path id="Vector_4" d="M39.1228 2.74738C39.9889 2.72864 41.4303 2.72964 42.1836 3.19533C42.3985 3.32814 42.468 4.82175 42.4867 5.14351C42.1137 5.006 41.412 4.78274 41.0017 4.73271C39.8239 4.58921 37.945 4.7609 36.9525 5.46107C36.5243 5.76329 36.2301 6.17738 36.1633 6.69117C35.933 8.4651 38.4571 8.92789 39.6728 9.49118C40.4264 9.82356 41.2516 10.2301 41.742 10.9221C42.5868 12.1136 42.4045 14.0462 41.1345 14.8791C40.0824 15.5691 38.5838 15.6739 37.3887 15.4824C37.1811 15.4415 36.9778 15.3827 36.7805 15.3066C35.5541 14.822 35.0137 13.794 34.5243 12.6722C35.7241 13.4061 38.2827 14.1716 39.7094 13.5423C40.0185 13.4059 40.1792 13.0572 40.2641 12.7376C39.934 11.3793 38.5539 11.2593 37.421 10.8004C36.5808 10.4601 35.9121 10.2306 35.1997 9.62666C33.7134 8.36686 33.7806 5.7322 35.0081 4.3276C36.0575 3.13431 37.6013 2.84524 39.1228 2.74738Z" fill="var(--fill-0, #F27E29)"/>
<path id="Vector_5" d="M28.1011 2.7461C29.4044 2.69933 30.8115 2.94143 31.5025 4.20539C31.792 4.73529 31.7467 5.69324 31.5395 6.24581C30.9728 7.75703 29.9231 9.24271 28.4608 9.98735C26.9266 10.6686 25.4657 10.7022 25.2962 8.6477C25.2286 7.84963 25.3876 7.07011 25.5077 6.28286C25.649 5.3562 25.8223 4.31614 26.4295 3.5666C26.9103 2.97292 27.3681 2.81501 28.1011 2.7461ZM27.1874 8.2343C27.5222 8.35953 27.8865 8.4082 28.1823 8.15554C28.5356 7.84754 28.8201 7.57534 29.0956 7.18668C29.7617 6.24688 30.4937 4.65161 28.6617 4.54585C28.6015 4.54243 28.5413 4.54016 28.4807 4.539C28.1607 4.58893 27.983 4.60201 27.7883 4.89191C27.451 5.39365 27.3348 6.02405 27.2117 6.60804C27.086 7.20402 26.9605 7.64808 27.1874 8.2343Z" fill="var(--fill-0, #F27E29)"/>
<path id="Vector_6" d="M25.8345 11.367C28.4375 11.1036 31.5641 12.1209 33.1455 14.2821C33.3951 14.623 33.621 15.1209 33.814 15.5071L31.1402 15.5005C30.2299 14.1479 28.875 13.4438 27.2663 13.2751C25.7869 13.0327 23.5922 13.6538 22.5369 14.7334C22.3645 14.9097 22.1199 15.2821 21.9687 15.4938C21.357 15.5641 20.0526 15.4837 19.3225 15.5217C20.4184 12.7376 23.0461 11.642 25.8345 11.367Z" fill="var(--fill-0, #F27E29)"/>
<path id="Vector_7" d="M9.66898 0.0386873C10.5971 -0.047627 10.9312 0.806196 11.0843 1.56155C10.8622 2.15271 10.2851 2.41511 9.8238 2.79891C9.55549 3.02217 9.28901 3.24663 9.01894 3.46789C9.00307 3.48234 8.9869 3.49642 8.97043 3.51013C8.86582 3.59705 8.46656 3.88831 8.33367 3.86554C8.25751 3.85213 8.19043 3.80739 8.14877 3.74225C7.97147 3.46856 8.10089 2.76263 8.16508 2.45998C8.38308 1.432 8.77436 0.629506 9.66898 0.0386873Z" fill="var(--fill-0, #F27E29)"/>
<path id="Vector_8" d="M47.3023 0.00995882C48.1474 -0.0474287 48.8611 0.139314 49.5246 0.67148C50.0769 1.11434 50.6528 1.49931 50.7649 2.23519C50.5663 2.29517 50.4791 2.32021 50.2722 2.34687C49.481 2.3737 48.5307 2.23329 47.7245 2.26655C46.9965 2.29657 46.7323 1.45929 46.8079 0.864947C46.8588 0.464433 46.7996 0.153128 47.3023 0.00995882Z" fill="var(--fill-0, #F27E29)"/>
<path id="Vector_9" d="M45.9809 13.2018C46.4062 13.1076 46.849 13.2511 47.1382 13.5767C47.4273 13.9023 47.5175 14.359 47.3741 14.7703C47.2307 15.1815 46.8756 15.4828 46.4468 15.5577C45.8043 15.6699 45.1894 15.248 45.063 14.6076C44.9362 13.9672 45.3441 13.3428 45.9809 13.2018Z" fill="var(--fill-0, #F27E29)"/>
</g>
</svg>
