<svg preserveAspectRatio="none" width="100%" height="100%" overflow="visible" style="display: block;" viewBox="0 0 54 58.0546" fill="none" xmlns="http://www.w3.org/2000/svg">
<path id="Vector" d="M38.1268 0C38.3621 0.0340837 38.6034 0.0998364 38.793 0.244791C38.8142 0.288228 38.8646 0.362959 38.8723 0.40757C38.9853 1.06493 36.5927 7.02441 36.2216 8.16674C35.8972 9.16504 35.66 10.1968 35.4389 11.2219C35.3779 11.5052 35.1731 12.0905 35.2189 12.364C35.2359 12.4655 35.3526 12.5653 35.4397 12.6112C35.4726 12.6286 35.5956 12.6654 35.6334 12.6571C36.1462 12.5441 40.4788 8.00029 41.1849 7.85979C41.3451 7.8279 41.5489 7.85719 41.6796 7.96106C41.889 8.12745 41.9037 8.45668 41.8825 8.70091C41.8255 9.35964 40.983 11.7292 40.6787 12.3416C40.3554 12.9924 39.1034 14.5865 39.1699 15.2143C40.0044 16.2201 44.7224 13.0758 45.5359 12.3444C46.0373 11.8936 48.584 9.27158 49.0904 10.4028C49.1179 12.3471 44.8428 15.6199 43.2655 16.6799C42.429 17.2421 41.7634 17.7308 41.2353 18.6234C44.0031 19.3812 47.2508 17.6361 50.0503 17.4423C50.6532 17.4006 51.9754 17.1085 52.3479 17.7624C52.0679 19.1942 42.1216 20.7786 41.8914 22.5147C42.5323 23.5316 48.1904 23.4649 49.456 23.4924C50.3143 23.5128 51.1722 23.5481 52.0292 23.5983C52.4804 23.6234 53.8418 23.5888 54 24.0345C53.9799 24.1102 53.9624 24.163 53.9083 24.222C52.4569 25.8034 48.4584 25.4412 46.4845 25.5729C45.644 25.6289 41.4918 25.925 41.0334 26.4947C40.9701 26.5734 40.9901 26.6098 40.9982 26.7049C41.6174 27.4181 46.0327 28.367 47.2011 28.7728C48.1178 29.0913 48.6157 29.284 49.5258 29.7602C49.127 30.0236 48.5431 30.4318 48.0797 30.5072C45.3588 30.9495 42.258 30.5577 39.5469 30.7335C40.1521 31.2422 40.9046 31.5139 41.5715 31.9102C43.5961 33.1132 47.5502 35.3064 49.1905 36.9797C48.6828 37.279 48.3468 37.4842 47.8039 37.7022C47.1165 37.4947 45.8716 36.9212 45.1716 36.6205L40.2396 34.4872C39.7832 34.2903 38.3023 33.6248 37.9183 33.5461L37.8212 33.6419C37.5416 35.3616 43.4464 38.9576 42.9883 40.1752C42.2003 40.4303 36.2865 36.7454 35.6924 36.847C35.7267 37.104 35.9962 37.6116 36.1218 37.8494C37.3165 40.1115 38.6732 42.2377 40.2379 44.2611C40.849 45.0515 43.0305 47.082 42.9406 47.9503C42.571 48.4097 41.6694 47.7405 41.2775 47.5083C38.9788 46.1463 37.1615 44.2096 35.365 42.2672C34.6998 41.548 33.7057 40.2918 32.926 39.7729L32.8249 39.8109C32.3346 40.4287 34.6018 46.7349 34.5212 47.8504C34.5058 48.0633 34.4412 48.1111 34.2806 48.2203C33.1463 48.2672 29.7304 42.8967 28.3683 42.6112C28.1221 42.7038 28.0459 42.9027 28.1096 43.155C28.5377 44.8498 31.5437 55.0415 30.883 56.3159C30.6301 56.5048 30.0615 56.3793 29.7418 56.3344C29.1789 55.2723 28.7529 53.4661 28.4064 52.5834C27.9486 51.4172 25.3488 45.647 24.8186 45.0904L24.7376 45.0889C24.5094 45.5204 24.559 46.1119 24.4676 46.4909C24.2066 47.5727 23.9564 53.8157 23.5294 54.4104C22.6625 54.7148 22.5349 52.2931 22.3915 51.7808C21.9373 50.1588 21.7052 47.2754 20.8255 45.9024C20.6389 46.4572 20.4564 47.2428 20.2889 47.8293C20.0164 48.7546 19.7289 49.6753 19.4263 50.5912C18.9679 52.5679 18.0488 54.6174 17.5784 56.6156C17.4401 57.203 16.1568 58.3502 15.754 57.984C15.3971 56.5426 18.6468 46.8162 17.6598 45.7803C17.0767 45.8555 14.8363 50.0835 14.1424 50.7018C13.6895 51.1055 12.7118 52.1559 12.0185 52.0288C11.8504 51.7954 12.0553 51.1183 12.1499 50.8319C12.8428 48.7349 14.2035 46.1511 14.4472 43.9554C13.9816 44.2251 13.5457 44.5481 13.0989 44.8478C11.8124 45.7105 4.40373 50.092 3.1654 49.8471C2.58206 49.4234 3.7436 48.1418 4.10825 47.8105C4.91221 47.0803 13.4173 41.9285 12.2737 40.6622C12.002 40.6168 11.3997 40.8491 11.0871 40.9069C9.9556 41.1164 4.88586 42.3816 4.23234 41.6525C4.07123 40.4497 9.31975 38.4168 10.2347 37.7958C10.5662 37.5709 11.4059 37.1125 11.7856 36.9205C9.90249 36.2825 8.0911 35.9539 6.13013 35.7129C5.33331 35.6149 0.358044 35.6579 0.0057317 35.3915C-0.0964728 34.8619 1.19636 33.97 1.63353 33.8608C2.33856 33.6803 3.27187 33.7935 3.96235 33.7001C5.58622 33.4804 10.9559 33.6542 11.8486 32.3048C11.8698 32.2172 11.87 32.1485 11.8442 32.061C11.3802 30.489 6.0821 29.2598 4.54409 28.4202C3.87289 28.0538 3.74447 27.5667 3.54206 26.8758C4.9365 26.5537 7.70669 27.0885 9.28299 26.966C10.8152 26.8469 12.1532 27.5872 13.3381 25.9599C9.90543 23.4294 6.37643 21.7579 2.68053 19.7529C2.56298 19.6892 2.60247 19.4557 2.61715 19.3579C2.84651 19.0144 3.18054 18.8984 3.5953 18.9447C5.756 19.1862 12.6618 22.1553 14.4104 21.0482L14.4353 20.9367C14.0743 19.8276 8.52026 16.4564 8.78391 14.9598C9.69635 13.9712 15.1454 17.1199 16.0371 16.6752C16.0983 16.5447 16.1315 16.5238 16.062 16.367C15.3608 14.7835 9.68414 7.58127 9.6311 6.37536C9.71503 6.26828 9.81636 6.14513 9.94779 6.0997C11.3754 5.60662 11.9031 7.04056 12.5938 7.87414C14.3088 9.94384 16.5559 12.6318 19.1165 13.5843C18.8901 11.8234 18.2049 10.0884 17.7205 8.38476C17.5276 7.70629 16.7393 5.9612 17.5581 5.49188C18.0336 5.50529 18.5558 6.44347 18.872 6.81753C19.8531 7.97834 21.1677 10.0783 22.4483 10.8561L22.4736 10.8713C22.434 9.77306 22.4253 8.51312 22.2493 7.42556C21.9823 5.83759 21.6607 4.26122 21.5244 2.65397C21.4865 2.20766 21.5882 1.61524 22.1492 1.64366C23.3932 2.29812 24.844 7.04716 25.6636 8.48036C26.1712 9.36798 26.2136 9.50961 26.9314 10.3093C27.7682 9.00292 28.5105 4.14901 29.5424 3.58221C30.7334 4.0344 30.575 9.95599 31.1931 10.9169L31.319 10.9403C32.0298 10.5819 32.8303 8.37268 33.2902 7.62797C34.75 5.26359 36.2246 2.01165 38.1268 0ZM20.7049 22.7129C23.2181 23.3085 26.0102 24.7326 25.2208 27.8545C24.7813 29.5925 23.5114 30.7535 22.5714 32.1782C23.0717 32.6484 24.0979 33.597 23.732 34.3401C23.5311 34.4823 23.337 34.4854 23.1029 34.4472C22.3498 34.3244 21.297 33.6985 20.8644 33.0658C20.7633 32.918 20.6677 32.716 20.694 32.5316C20.8104 31.7179 24.6099 27.8843 23.9867 26.7165C23.8245 26.4126 23.1142 26.2159 22.8038 26.0768C21.9543 25.6961 20.9975 24.9828 20.3198 24.3445C19.9219 25.9016 19.5343 27.4859 19.1203 29.0339C18.6682 30.7242 18.1668 32.3158 17.9022 34.0588C17.8492 34.4085 17.6768 35.2295 17.6715 35.5477C17.5181 36.9775 17.2547 40.2185 19.3226 40.4101C21.748 40.6348 24.1328 39.2519 25.9308 37.7541C27.3634 36.5294 28.8587 34.6777 29.9721 33.1425C30.3865 32.5712 31.2554 31.2407 31.6601 30.7737C30.7351 30.4864 26.9654 28.6359 27.3019 27.4821C27.4104 27.3539 27.5102 27.2381 27.6899 27.2243C29.3043 27.1003 31.5656 27.8901 32.7696 28.8456C34.7132 25.451 36.9921 20.0606 32.5158 17.5962C30.715 16.6047 28.6884 16.1855 26.6461 16.3702C22.8517 16.9028 22.1488 19.7726 20.7049 22.7129Z" fill="var(--fill-0, #F27E29)"/>
</svg>
